<svg width="52" height="46" viewBox="0 0 52 46" fill="none" xmlns="http://www.w3.org/2000/svg">
<path d="M51.1213 20.8787C52.2929 22.0503 52.2929 23.9497 51.1213 25.1213L32.0294 44.2132C30.8579 45.3848 28.9584 45.3848 27.7868 44.2132C26.6152 43.0416 26.6152 41.1421 27.7868 39.9706L44.7574 23L27.7868 6.02944C26.6152 4.85786 26.6152 2.95837 27.7868 1.7868C28.9584 0.615223 30.8579 0.615223 32.0294 1.7868L51.1213 20.8787ZM3 26C1.34315 26 0 24.6569 0 23C0 21.3431 1.34315 20 3 20V26ZM49 26H3V20H49V26Z" fill="#57047D"/>
</svg>
